<?xml version="1.0" standalone="no"?>
<!DOCTYPE svg PUBLIC "-//W3C//DTD SVG 20010904//EN"
 "http://www.w3.org/TR/2001/REC-SVG-20010904/DTD/svg10.dtd">
<svg version="1.0" xmlns="http://www.w3.org/2000/svg"
 width="527.000000pt" height="527.000000pt" viewBox="0 0 527.000000 527.000000"
 preserveAspectRatio="xMidYMid meet">
<metadata>
Created by potrace 1.14, written by Peter Selinger 2001-2017
</metadata>
<g transform="translate(0.000000,527.000000) scale(0.100000,-0.100000)"
fill="#000000" stroke="none">
<path d="M3724 3113 l-71 -24 -1 -417 c0 -229 1 -424 4 -432 3 -12 21 -15 86
-15 l83 0 0 458 c0 401 -2 457 -15 456 -8 -1 -47 -13 -86 -26z"/>
<path d="M385 3119 c-229 -37 -388 -225 -384 -454 3 -129 41 -218 133 -311
143 -144 348 -174 536 -78 38 19 150 124 150 139 0 6 -32 31 -71 58 l-70 47
-33 -35 c-73 -77 -196 -104 -295 -66 -191 76 -234 317 -80 455 104 94 250 93
358 -1 l52 -45 75 49 75 50 -59 59 c-108 107 -247 155 -387 133z"/>
<path d="M4208 3100 c-117 -36 -215 -116 -266 -217 -68 -132 -68 -294 -1 -426
39 -75 164 -186 229 -202 8 -2 35 -11 60 -18 52 -17 195 -15 228 2 11 6 28 11
37 11 32 0 150 87 191 141 73 95 92 148 101 282 l6 87 -227 0 -226 0 -1 -22
c-1 -26 -1 -102 0 -135 1 -22 3 -23 121 -21 66 1 122 -1 126 -4 9 -10 -22 -62
-58 -97 -136 -134 -361 -92 -439 83 -56 127 1 283 126 349 29 15 62 22 115 23
84 3 135 -15 189 -67 17 -16 36 -29 42 -29 6 0 39 21 74 47 74 55 74 57 -7
125 -119 100 -274 132 -420 88z"/>
<path d="M5140 3084 l-76 -25 1 -282 c1 -155 -3 -294 -8 -309 -17 -54 -73 -76
-134 -55 -19 7 -33 -1 -83 -51 -57 -55 -60 -61 -45 -76 42 -41 98 -60 180 -60
73 0 85 3 131 32 61 38 94 78 119 146 17 44 19 82 19 375 1 281 -1 326 -14
327 -8 1 -49 -9 -90 -22z"/>
<path d="M2260 3032 l-75 -27 0 -240 c1 -172 5 -254 15 -290 37 -134 156 -239
286 -252 l52 -6 -1 82 -2 82 -51 18 c-27 9 -61 26 -73 38 -34 32 -57 108 -56
189 l1 69 90 3 91 3 1 79 1 80 -88 0 c-62 0 -90 4 -93 13 -2 6 -3 51 -2 100 1
58 -3 87 -10 86 -6 0 -45 -12 -86 -27z"/>
<path d="M2900 2872 c-122 -15 -243 -115 -291 -241 -18 -48 -22 -81 -24 -221
-1 -91 1 -169 6 -175 5 -8 122 -12 159 -6 3 1 5 72 5 159 0 149 1 160 25 207
31 63 92 103 170 114 5 1 5 117 1 157 -1 11 -8 12 -51 6z"/>
<path d="M1035 2851 c-90 -30 -150 -83 -196 -171 -36 -68 -39 -187 -7 -260 57
-129 176 -203 313 -196 84 4 146 30 204 84 134 126 140 328 15 458 -21 22 -50
47 -64 56 -71 43 -187 56 -265 29z m182 -183 c94 -62 87 -199 -13 -255 -133
-76 -279 72 -203 207 44 78 139 99 216 48z"/>
<path d="M1519 2851 c-1 -19 -1 -577 0 -606 1 -18 8 -20 83 -19 l83 0 5 190
c3 121 9 197 17 210 43 75 173 63 203 -20 5 -16 10 -108 10 -205 l0 -177 78 2
c42 1 80 2 85 3 12 2 8 369 -5 415 -36 125 -163 213 -293 203 -33 -2 -68 -7
-77 -12 -13 -5 -18 -3 -18 8 0 20 -21 25 -102 25 -55 -1 -68 -4 -69 -17z"/>
<path d="M3190 2860 c-142 -41 -238 -150 -248 -281 -6 -87 10 -151 54 -216
163 -239 530 -159 582 127 34 189 -108 366 -301 375 -34 1 -73 -1 -87 -5z
m163 -192 c59 -42 77 -130 41 -200 -54 -105 -224 -96 -272 15 -33 78 7 173 88
206 35 14 108 4 143 -21z"/>
</g>
</svg>
